<svg xmlns="http://www.w3.org/2000/svg" width="62.85" height="62.85"><path fill="none" d="M0 0h62.85v62.85H0z"/><path fill="#000333" d="M52.71 33.1c0 12.88-10.44 23.32-23.32 23.32S6.07 45.98 6.07 33.1 16.51 9.78 29.39 9.78c2.47 0 4.86.38 7.09 1.1l-1.28 1.28c-.69.69-1.02 1.69-.97 2.8-1.54-.41-3.16-.63-4.84-.63-10.39 0-18.81 8.42-18.81 18.81 0 10.39 8.42 18.81 18.81 18.81 10.39 0 18.81-8.42 18.81-18.81 0-1.7-.22-3.35-.65-4.92 1.08.03 2.05-.3 2.73-.98l1.31-1.31c.73 2.25 1.12 4.67 1.12 7.17z"/><path fill="#000333" d="M56.5 17.81l-5.85 5.68-1.21 1.18c-.7.67-1.79.89-2.97.6-.15-.04-.3-.09-.46-.14l-.71-.25-2.57-.92-11.02 11.02a3.042 3.042 0 01-4.29 0c-.59-.59-.89-1.37-.89-2.15 0-.78.3-1.55.89-2.15l5.82-5.82 3.18-3.18 2.11-2.11-.89-2.34-.13-.34c-.11-.27-.18-.54-.22-.8-.17-1 .07-1.91.69-2.52l1.52-1.47 5.55-5.38c.68-.66 2.13-.05 2.55 1.08l.02.06 1.92 5.05.15.41 4.91 1.76.77.28c1.18.38 1.81 1.79 1.13 2.45z"/><path fill="#000333" d="M43.17 33.1c0 7.61-6.17 13.78-13.78 13.78-7.61 0-13.78-6.17-13.78-13.78 0-7.61 6.17-13.78 13.78-13.78 1.83 0 3.57.35 5.16 1l-3.77 3.77c-.45-.07-.92-.11-1.39-.11-5.03 0-9.11 4.08-9.11 9.11 0 5.03 4.08 9.11 9.11 9.11 5.03 0 9.11-4.08 9.11-9.11 0-.45-.03-.9-.1-1.33l3.79-3.79c.63 1.59.98 3.32.98 5.13z"/></svg>