<svg xmlns="http://www.w3.org/2000/svg" width="62.85" height="62.85"><path fill="none" d="M0 0h62.85v62.85H0z"/><path fill="#000333" d="M44.99 40.25v.05c0 2.6-.5 4.76-1.52 6.49-1.02 1.73-2.53 3.01-4.55 3.87-1.23.52-2.64.89-4.24 1.09v4.68h-5.64v-4.61c-.96-.1-1.88-.28-2.78-.52-1.6-.43-3.09-1.08-4.48-1.94-1.39-.86-2.69-1.93-3.91-3.22l3.79-4.59c1.33 1.6 2.8 2.81 4.41 3.61 1.61.8 3.37 1.2 5.27 1.2 2.61 0 4.57-.51 5.86-1.54 1.29-1.02 1.94-2.58 1.94-4.66v-.03c0-1.33-.31-2.38-.94-3.15a5.75 5.75 0 00-2.43-1.74c-.99-.39-2.27-.73-3.82-1.02a.497.497 0 00-.16-.03c-.05 0-.1-.01-.15-.03a2.5 2.5 0 00-.29-.05c-.1-.02-.2-.04-.29-.05-2.47-.46-4.47-.98-6-1.55-1.53-.57-2.84-1.61-3.93-3.11-1.09-1.5-1.63-3.64-1.63-6.41v-.03c0-2.69.49-4.93 1.46-6.71.98-1.78 2.44-3.11 4.38-4.01 1.08-.5 2.31-.86 3.69-1.08V6.42h5.64v4.59c.61.06 1.21.16 1.81.29 1.26.27 2.51.67 3.75 1.22 1.23.54 2.46 1.22 3.68 2.03l-3.4 4.67c-1.36-.92-2.69-1.61-4-2.06-1.3-.45-2.59-.68-3.86-.68-2.43 0-4.26.5-5.48 1.51-1.22 1.01-1.83 2.51-1.83 4.52v.03c0 1.38.35 2.47 1.05 3.25.7.78 1.58 1.36 2.64 1.73 1.06.37 2.51.76 4.36 1.16.07.02.15.04.22.05.08.02.16.04.25.05.09.02.18.04.26.05.08.02.17.04.26.05 2.17.48 4 1.07 5.46 1.76s2.69 1.8 3.66 3.33c1 1.56 1.49 3.64 1.49 6.28z"/></svg>